# xmcd
# 
# Track frame offsets:
#     150
#     16513
#     43494
#     53633
#     73931
#     91868
#     118653
#     139373
#     149825
#     154817
#     167462
# 
# Disc length: 2475
# 
# Revision: 1
# Processed by: cddbd v1.5.2PL0 Copyright (c) Steve Scherf et al.
# Submitted via: fre:ac v1.0.17
# 
DISCID=9c09a90b
DTITLE=Walker, Jerry Jeff - Bein' Free
DYEAR=0
DGENRE=
TTITLE0=I'm Gonna Tell on You
TTITLE1=Stoney
TTITLE2=Where is the D.A.R. When You Really Need Them
TTITLE3=A Secret
TTITLE4=Nobody's
TTITLE5=Some Go Home
TTITLE6=But For the Time
TTITLE7=Vince Triple-O Martin
TTITLE8=Harmonica Talk
TTITLE9=Please Let Me Be
TTITLE10=More Often Than Not
EXTD=Reissue
EXTT0=
EXTT1=
EXTT2=
EXTT3=
EXTT4=
EXTT5=
EXTT6=
EXTT7=
EXTT8=
EXTT9=
EXTT10=
PLAYORDER=
